PathFileType	4	(X/Y/Z)	C:\Users\Biomechanik\SynologyDrive\AlexP\Athlete_03\Athlete_3_25_03_31\Deadlift_bw_01\marker_experimental.trc
DataRate	CameraRate	NumFrames	NumMarkers	Units	OrigDataRate	OrigDataStartFrame	OrigNumFrames
200.000000	200.000000	4	55	mm	200.000000	1336	1527
Frame#	Time	BL			BR			GLAB			RFHD			LFHD			C7			T6			SPINMOL			SPINM2			SPINM3			T12			BELTOL			BELT2			BELT3			SACROL			SACR2			SACR3			LTHOL			LTH2			LTH3			LSHAOL			LSHA2			LSHA3			LHEE			LTOE			LM5			RTHOL			RTH2			RTH3			RSHAOL			RSHA2			RSHA3			RHEE			RTOE			RM5			STRN			XIPH			LACR			LUAOL			LUA2			LUA3			LLAOL			LLA2			LLA3			LWRR			LWRU			RACR			RUAOL			RUA2			RUA3			RLAOL			RLA2			RLA3			RWRR			RWRU			
		X1	Y1	Z1	X2	Y2	Z2	X3	Y3	Z3	X4	Y4	Z4	X5	Y5	Z5	X6	Y6	Z6	X7	Y7	Z7	X8	Y8	Z8	X9	Y9	Z9	X10	Y10	Z10	X11	Y11	Z11	X12	Y12	Z12	X13	Y13	Z13	X14	Y14	Z14	X15	Y15	Z15	X16	Y16	Z16	X17	Y17	Z17	X18	Y18	Z18	X19	Y19	Z19	X20	Y20	Z20	X21	Y21	Z21	X22	Y22	Z22	X23	Y23	Z23	X24	Y24	Z24	X25	Y25	Z25	X26	Y26	Z26	X27	Y27	Z27	X28	Y28	Z28	X29	Y29	Z29	X30	Y30	Z30	X31	Y31	Z31	X32	Y32	Z32	X33	Y33	Z33	X34	Y34	Z34	X35	Y35	Z35	X36	Y36	Z36	X37	Y37	Z37	X38	Y38	Z38	X39	Y39	Z39	X40	Y40	Z40	X41	Y41	Z41	X42	Y42	Z42	X43	Y43	Z43	X44	Y44	Z44	X45	Y45	Z45	X46	Y46	Z46	X47	Y47	Z47	X48	Y48	Z48	X49	Y49	Z49	X50	Y50	Z50	X51	Y51	Z51	X52	Y52	Z52	X53	Y53	Z53	X54	Y54	Z54	X55	Y55	Z55	

1337	6.68	1214.24462890625	39.25838470458999	-2269.225341796875	1226.860961914062	29.84482955932619	-248.7980346679688	583.7672119140625	1127.009521484375	-1201.744995117188	547.0375366210938	1169.079956054688	-1138.634765625	551.4426879882812	1164.24462890625	-1274.054931640625	312.5471496582031	1092.444580078125	-1208.182373046875	167.6446990966797	1007.60498046875	-1213.630615234375	140.8731689453125	988.3200073242189	-1236.030517578125	131.5765228271484	982.8762817382814	-1187.151000976562	93.17036437988281	943.5850830078126	-1224.206787109375	56.47940826416016	896.0466918945314	-1221.559936523438	21.66822052001953	892.0740966796876	-1235.644409179688	20.74337959289551	888.1510009765626	-1185.446411132812	-23.0067253112793	848.2091064453126	-1214.888916015625	-99.14581298828125	750.4173583984376	-1240.194580078125	-96.48544311523438	746.9906005859376	-1188.97900390625	-120.5588531494141	691.8455810546876	-1217.017700195312	139.0661163330078	496.5028686523439	-1423.787475585938	159.2333374023438	423.6995849609376	-1400.50927734375	188.8191986083984	461.6796264648439	-1416.984130859375	250.29833984375	285.1177062988282	-1434.248901367188	181.9023590087891	245.3780212402345	-1423.129516601562	229.0548400878906	228.1608428955079	-1424.47265625	78.46058654785156	69.86569213867196	-1319.405883789062	294.8188781738281	46.57516098022469	-1329.7802734375	243.1196136474609	29.99217414855966	-1430.604125976562	129.4486694335938	493.4586791992188	-1011.612121582031	205.5431213378906	512.0864257812501	-993.689453125	187.2661743164062	469.9942626953126	-1014.315856933594	245.9426727294922	305.5276794433594	-999.6383666992188	250.5843811035156	226.7890167236329	-1007.020080566406	210.3921356201172	255.6668701171876	-1011.461547851562	78.52677917480469	64.52130889892585	-1117.08935546875	289.5063781738281	46.07511138916023	-1105.771484375	237.3823852539062	40.28034210205085	-1004.751281738281	397.6586303710938	913.3617553710939	-1211.120239257812	316.3241882324219	789.1000366210939	-1216.13818359375	370.5659484863281	987.4559326171876	-1376.140747070312	370.2034606933594	842.3347167968751	-1467.433471679688	365.7162170410156	782.8781738281251	-1494.099487304688	387.8967590332031	782.0466918945314	-1448.55810546875	375.3759765625	575.9868774414064	-1505.637939453125	326.0375671386719	518.0227050781251	-1527.355346679688	372.4814453125	514.5807495117189	-1508.248901367188	373.2944030761719	407.7821044921876	-1509.308471679688	370.6258850097656	406.9513244628907	-1430.363403320312	378.1723937988281	981.6384887695314	-1050.286254882812	367.9467468261719	839.9367675781251	-968.0641479492188	383.3959350585938	777.7064208984376	-977.466796875	357.9739685058594	784.3815307617189	-932.8086547851562	355.6969909667969	560.8995971679689	-932.5234985351562	403.7033996582031	498.3990173339844	-943.7664184570312	355.6107788085938	497.9774475097657	-932.0562744140625	375.9387512207031	408.1600036621094	-940.2115478515625	361.4997253417969	395.5070190429688	-1019.455078125	
1338	6.685	1214.24462890625	39.2584495544435	-2269.22509765625	1226.86181640625	29.8456325531006	-248.7976837158203	583.1561889648438	1130.200439453125	-1201.666137695312	546.2894287109375	1172.16552734375	-1138.577880859375	550.7461547851562	1167.334228515625	-1273.988525390625	312.0379943847656	1094.880859375	-1208.156372070312	167.3516693115234	1009.679077148438	-1213.649047851562	140.6275939941406	990.3265991210939	-1236.0380859375	131.3436126708984	984.8756713867189	-1187.159301757812	93.03461456298828	945.4816894531251	-1224.207641601562	56.42993927001953	897.8446044921876	-1221.5517578125	21.60716438293457	893.8021850585939	-1235.681030273438	20.70427131652832	889.8963012695314	-1185.468017578125	-23.00199890136719	849.8852539062501	-1214.909057617188	-98.80534362792969	752.1990356445314	-1240.20361328125	-96.14851379394531	748.7682495117189	-1188.973266601562	-120.2139282226562	693.6284179687501	-1217.025756835938	139.0236968994141	497.6015930175782	-1423.626586914062	158.8753967285156	424.7819213867189	-1400.306518554688	188.6418609619141	462.6094360351564	-1416.765625	249.9729766845703	285.3890991210939	-1434.091430664062	181.6224822998047	245.5641632080079	-1422.984252929688	228.7920074462891	228.4055786132813	-1424.361450195312	78.43044281005859	69.85121154785165	-1319.438110351562	294.800048828125	46.60933303833016	-1329.788818359375	243.1177062988281	29.99308204650888	-1430.60595703125	129.2784729003906	494.6702880859376	-1011.607238769531	205.4368133544922	512.9948730468751	-993.6622314453125	187.0041198730469	470.9855041503907	-1014.310668945312	245.5741424560547	305.7199401855469	-999.61181640625	250.3206787109375	226.9833221435547	-1006.976501464844	210.0990447998047	255.8048706054688	-1011.449890136719	78.50696563720703	64.50402069091804	-1117.059326171875	289.5233459472656	46.09948730468757	-1105.734375	237.3746948242188	40.27297973632819	-1004.734069824219	397.5376892089844	915.9853515625001	-1211.077880859375	316.5023193359375	791.5237426757814	-1216.0439453125	370.3023071289062	990.0355834960939	-1376.1396484375	369.9089050292969	844.8113403320314	-1467.535522460938	365.4111938476562	785.3662719726564	-1494.221923828125	387.7070922851562	784.5430908203126	-1448.721923828125	375.2095336914062	578.4592285156251	-1505.734252929688	325.8481750488281	520.3452148437501	-1526.97412109375	372.4295043945312	517.0557250976564	-1508.234741210938	373.4701232910156	410.2586975097657	-1509.053100585938	371.3258666992188	409.5377197265626	-1430.089599609375	377.8864135742188	984.2266845703126	-1050.228271484375	367.7167053222656	842.4647827148439	-967.9465942382812	383.25830078125	780.2089233398439	-977.3262329101562	357.7586059570312	786.9072265625001	-932.7135009765625	355.6394653320312	563.4238281250001	-932.3802490234375	403.7251281738281	500.9658813476563	-943.503662109375	355.6083984375	500.5001220703126	-931.9215698242188	376.0233764648438	410.6963500976563	-940.0343017578125	361.8687744140625	398.0542907714844	-1019.336486816406	
1339	6.69	1214.244506835938	39.25838088989272	-2269.224853515625	1226.862548828125	29.84644126892091	-248.7973785400391	582.5364379882812	1133.432739257812	-1201.588134765625	545.5344848632812	1175.292602539062	-1138.519409179688	550.04345703125	1170.466674804688	-1273.923461914062	311.5195007324219	1097.358764648438	-1208.130615234375	167.0523681640625	1011.7900390625	-1213.666748046875	140.3788909912109	992.3662719726564	-1236.047241210938	131.1082153320312	986.9100341796876	-1187.164794921875	92.89772796630859	947.4099731445314	-1224.208862304688	56.38787078857422	899.6785278320314	-1221.540771484375	21.54610824584961	895.5642089843751	-1235.718505859375	20.67071342468262	891.6719360351564	-1185.490844726562	-22.99507331848145	851.5886840820314	-1214.9306640625	-98.45594024658203	754.0070190429689	-1240.212890625	-95.80235290527344	750.5705566406251	-1188.966552734375	-119.8596038818359	695.4370727539064	-1217.034545898438	138.9822845458984	498.7180480957032	-1423.468383789062	158.5099334716797	425.8847961425782	-1400.10791015625	188.4613342285156	463.5549316406251	-1416.547973632812	249.6383209228516	285.6636352539064	-1433.936279296875	181.3352355957031	245.7515106201173	-1422.840576171875	228.5224151611328	228.6520538330079	-1424.251342773438	78.39708709716797	69.83865356445321	-1319.470581054688	294.7807312011719	46.64424514770516	-1329.797729492188	243.1158142089844	29.99325561523446	-1430.608154296875	129.1076812744141	495.9012451171876	-1011.602722167969	205.3298645019531	513.9171752929689	-993.6366577148438	186.7395935058594	471.9924621582032	-1014.306762695312	245.2010192871094	305.9132690429688	-999.5842895507812	250.054443359375	227.1799468994141	-1006.933410644531	209.8016204833984	255.9421844482422	-1011.438598632812	78.48738861083984	64.4865798950196	-1117.029541015625	289.5423278808594	46.12240982055671	-1105.695556640625	237.3666534423828	40.26543426513678	-1004.716247558594	397.4168701171875	918.6537475585939	-1211.036987304688	316.6851501464844	793.9901733398439	-1215.95458984375	370.0319213867188	992.6636962890626	-1376.140869140625	369.608154296875	847.3374023437501	-1467.645751953125	365.0919799804688	787.9050903320314	-1494.354370117188	387.511474609375	787.0879516601564	-1448.893676757812	375.0369567871094	580.9788818359376	-1505.84033203125	325.6585083007812	522.7096557617189	-1526.589477539062	372.3765563964844	519.5755615234376	-1508.224853515625	373.6483154296875	412.7857055664064	-1508.797607421875	372.0463256835938	412.1775817871095	-1429.818359375	377.5962219238281	986.8618164062501	-1050.171752929688	367.4850463867188	845.0385742187501	-967.8294067382812	383.1216430664062	782.7535400390626	-977.1876220703125	357.5447387695312	789.4791870117189	-932.6198120117188	355.5830383300781	565.9941406250001	-932.2366333007812	403.7481994628906	503.5782470703126	-943.2408447265625	355.6075744628906	503.0690917968751	-931.7867431640625	376.1118774414062	413.2800598144532	-939.8572998046875	362.2334899902344	400.6596069335938	-1019.22412109375	
1340	6.695	1214.244384765625	39.25820159912124	-2269.224609375	1226.863037109375	29.84718513488771	-248.7971496582031	581.9073486328125	1136.706176757812	-1201.51123046875	544.7720336914062	1178.461303710938	-1138.459350585938	549.3338012695312	1173.6416015625	-1273.85986328125	310.9912719726562	1099.8779296875	-1208.104736328125	166.7463226318359	1013.937194824219	-1213.683349609375	140.1263580322266	994.4381103515626	-1236.057739257812	130.8694915771484	988.9783935546876	-1187.16748046875	92.75963592529297	949.3692016601564	-1224.210205078125	56.3531379699707	901.5485229492189	-1221.526123046875	21.4848461151123	897.3593750000001	-1235.75634765625	20.64228439331055	893.4765625000001	-1185.515014648438	-22.98626518249512	853.3186645507814	-1214.953247070312	-98.09786224365234	755.8397827148439	-1240.22216796875	-95.44752502441406	752.3967895507814	-1188.95947265625	-119.4961624145508	697.2701416015626	-1217.043823242188	138.9410247802734	499.8528442382814	-1423.311889648438	158.1384887695312	427.0061035156251	-1399.912963867188	188.2774047851562	464.5156555175782	-1416.331298828125	249.29541015625	285.9401245117189	-1433.78369140625	181.0414733886719	245.9388580322266	-1422.69970703125	228.2469787597656	228.8991241455079	-1424.142822265625	78.36103057861328	69.82717895507821	-1319.503051757812	294.760986328125	46.67975997924813	-1329.807006835938	243.1138305664062	29.99306869506845	-1430.610595703125	128.9372100830078	497.1491088867188	-1011.599548339844	205.22314453125	514.8511962890626	-993.6133422851562	186.4734954833984	473.0129699707032	-1014.304931640625	244.8236541748047	306.1075134277344	-999.5557250976562	249.7859802246094	227.3787078857422	-1006.890502929688	209.5001525878906	256.0788269042969	-1011.427551269531	78.46816253662109	64.46915435791023	-1117.000244140625	289.5635986328125	46.14360046386726	-1105.65478515625	237.3582611083984	40.25765991210944	-1004.697937011719	397.2958068847656	921.3661499023439	-1210.99755859375	316.8721618652344	796.4987182617189	-1215.86962890625	369.75390625	995.3398437500001	-1376.144287109375	369.3012390136719	849.9117431640626	-1467.764404296875	364.7575988769531	790.4924926757814	-1494.495971679688	387.3101501464844	789.6793212890626	-1449.073364257812	374.859130859375	583.5446777343751	-1505.9560546875	325.4696960449219	525.1147460937501	-1526.202026367188	372.323486328125	522.1383056640626	-1508.2177734375	373.8299255371094	415.3618164062501	-1508.54150390625	372.7892150878906	414.8705139160157	-1429.549926757812	377.3011169433594	989.5431518554689	-1050.1162109375	367.2520141601562	847.6566772460939	-967.712646484375	382.9859619140625	785.3403930664064	-977.0504760742188	357.3328552246094	792.0953979492189	-932.5272216796875	355.5284729003906	568.6087036132814	-932.0924682617188	403.7735595703125	506.2344970703126	-942.978271484375	355.6089477539062	505.6824951171876	-931.6517333984375	376.2051696777344	415.9093322753907	-939.6809692382812	362.596435546875	403.3211059570313	-1019.1162109375	
